<svg viewBox="0 0 25 23" version="1.1" xmlns="http://www.w3.org/2000/svg"><g fill="#052d49"><path d="M12.016 0c3.264 0 3.673.013 4.954.067 1.28.054 2.153.242 2.917.518.79.285 1.46.666 2.129 1.285A5.439 5.439 0 0 1 23.4 3.843c.298.709.5 1.519.559 2.705.058 1.188.072 1.568.072 4.593 0 3.026-.014 3.406-.072 4.594-.058 1.186-.261 1.996-.559 2.704a5.439 5.439 0 0 1-1.385 1.974c-.669.62-1.339 1-2.129 1.285-.764.275-1.638.464-2.917.518-1.281.054-1.69.067-4.954.067-3.263 0-3.672-.013-4.954-.067-1.28-.054-2.153-.243-2.917-.518a5.957 5.957 0 0 1-2.128-1.285A5.438 5.438 0 0 1 .63 18.439c-.297-.708-.5-1.518-.559-2.704C.014 14.547 0 14.167 0 11.14c0-3.025.014-3.405.072-4.593.059-1.186.262-1.996.559-2.705A5.438 5.438 0 0 1 2.017 1.87c.668-.62 1.338-1 2.128-1.285C4.91.309 5.783.12 7.062.067 8.344.013 8.752 0 12.016 0zm0 2.007c-3.208 0-3.588.012-4.855.065-1.172.05-1.808.231-2.232.384-.56.202-.96.444-1.381.833-.42.39-.681.761-.9 1.281-.164.393-.36.983-.413 2.07-.058 1.174-.07 1.526-.07 4.501 0 2.975.012 3.328.07 4.502.054 1.087.25 1.677.414 2.07.218.52.478.89.899 1.28.42.39.82.632 1.381.834.424.152 1.06.334 2.232.383 1.267.054 1.646.065 4.855.065 3.209 0 3.589-.011 4.856-.065 1.171-.05 1.808-.23 2.23-.383.562-.202.962-.444 1.383-.834.42-.39.68-.76.898-1.28.165-.393.36-.983.414-2.07.058-1.174.07-1.527.07-4.502 0-2.975-.012-3.327-.07-4.502-.053-1.086-.249-1.676-.414-2.069a3.438 3.438 0 0 0-.898-1.28c-.42-.39-.821-.632-1.382-.834-.423-.153-1.06-.334-2.231-.384-1.267-.053-1.647-.065-4.856-.065zm0 3.413c3.408 0 6.17 2.562 6.17 5.721 0 3.16-2.762 5.722-6.17 5.722s-6.17-2.562-6.17-5.722c0-3.16 2.762-5.72 6.17-5.72zm0 9.435c2.212 0 4.006-1.663 4.006-3.714 0-2.05-1.794-3.713-4.006-3.713S8.011 9.09 8.011 11.14s1.793 3.714 4.005 3.714zm7.856-9.66c0 .737-.645 1.336-1.442 1.336-.796 0-1.442-.599-1.442-1.337s.646-1.337 1.442-1.337c.797 0 1.442.599 1.442 1.337z" data-color="1" fill-rule="evenodd"></path></g></svg>
